<!DOCTYPE svg PUBLIC "-//W3C//DTD SVG 1.1//EN" "http://www.w3.org/Graphics/SVG/1.1/DTD/svg11.dtd">

<!-- Uploaded to: SVG Repo, www.svgrepo.com, Transformed by: SVG Repo Mixer Tools -->
<svg fill="rgba(102, 102, 102, 1)" height="30px" width="30px" version="1.1" id="Layer_1" xmlns="http://www.w3.org/2000/svg" xmlns:xlink="http://www.w3.org/1999/xlink" viewBox="0 0 100 100" style="border-radius: 50%; overflow: visible">
    <g id="SVGRepo_bgCarrier" stroke-width="0"/>
    <g id="SVGRepo_tracerCarrier" stroke-linecap="round" stroke-linejoin="round"/>
    <g id="SVGRepo_iconCarrier">
        <g>
            <path style="fill-rule:evenodd;clip-rule:evenodd;" d="M0,0v100h100V0H0z M84.404,22.151l-11.768,56.651 c-0.277,1.336-1.843,1.941-2.948,1.138l-16.054-11.656c-0.974-0.708-2.304-0.67-3.237,0.091l-8.901,7.256 c-1.033,0.845-2.59,0.374-2.985-0.898l-6.181-19.877l-15.968-5.96c-1.622-0.608-1.636-2.898-0.018-3.521L82.179,20.011 C83.308,19.474,84.835,20.675,84.404,22.151z"/>
            <path style="fill-rule:evenodd;clip-rule:evenodd;" d="M68.985,32.379l-31.208,19.221c-1.196,0.738-1.759,2.183-1.373,3.535 l3.374,11.856c0.24,0.84,1.459,0.754,1.576-0.114l0.876-6.502c0.166-1.224,0.749-2.352,1.655-3.195l25.747-23.942 C70.443,32.773,69.798,31.914,68.985,32.379z"/>
        </g>
    </g>
</svg>